<?xml version="1.0" encoding="utf-8"?>
<svg version="1.1" xmlns:xlink="http://www.w3.org/1999/xlink" width="9px" height="10px" xmlns="http://www.w3.org/2000/svg">
  <g transform="matrix(1 0 0 1 -1186 -177 )">
    <path d="M 8.80129076086957 4.00834403080873  C 8.93376358695652 4.16880616174583  9 4.36243046640993  9 4.58921694480103  L 9 5.41078305519897  C 9 5.63756953359007  8.93376358695652 5.83119383825417  8.80129076086957 5.99165596919127  C 8.66881793478261 6.15211810012837  8.49660326086957 6.23234916559692  8.28464673913043 6.23234916559692  L 3.98029891304348 6.23234916559692  L 5.77173913043478 8.1193838254172  C 5.92663043478261 8.27342747111682  6.00407608695652 8.46598202824133  6.00407608695652 8.69704749679076  C 6.00407608695652 8.92811296534018  5.92663043478261 9.1206675224647  5.77173913043478 9.27471116816431  L 5.31317934782609 9.76251604621309  C 5.16236413043478 9.92083868207103  4.9789402173913 10  4.76290760869565 10  C 4.55095108695652 10  4.36548913043478 9.92083868207103  4.20652173913043 9.76251604621309  L 0.226222826086957 5.57766367137356  C 0.0754076086956522 5.41934103551562  0 5.2267864783911  0 5  C 0 4.77749251176722  0.0754076086956522 4.58279845956354  0.226222826086957 4.41591784338896  L 4.20652173913043 0.24390243902439  C 4.36141304347826 0.0813008130081294  4.546875 0  4.76290760869565 0  C 4.97486413043478 0  5.15828804347826 0.0813008130081294  5.31317934782609 0.24390243902439  L 5.77173913043478 0.718870346598203  C 5.92663043478261 0.881471972614463  6.00407608695652 1.07616602481814  6.00407608695652 1.30295250320924  C 6.00407608695652 1.52973898160034  5.92663043478261 1.72443303380402  5.77173913043478 1.88703465982028  L 3.98029891304348 3.76765083440308  L 8.28464673913043 3.76765083440308  C 8.49660326086957 3.76765083440308  8.66881793478261 3.84788189987163  8.80129076086957 4.00834403080873  Z " fill-rule="nonzero" fill="#5cc870" stroke="none" transform="matrix(1 0 0 1 1186 177 )" />
  </g>
</svg>