<?xml version="1.0" encoding="utf-8"?>
<svg version="1.1" xmlns:xlink="http://www.w3.org/1999/xlink" width="32px" height="32px" xmlns="http://www.w3.org/2000/svg">
  <g transform="matrix(1 0 0 1 -700 -31 )">
    <path d="M 716 31.5  C 724.68 31.5  731.5 38.32  731.5 47  C 731.5 55.68  724.68 62.5  716 62.5  C 707.32 62.5  700.5 55.68  700.5 47  C 700.5 38.32  707.32 31.5  716 31.5  Z " fill-rule="nonzero" fill="#ffffff" stroke="none" fill-opacity="0" />
    <path d="M 716 31.5  C 724.68 31.5  731.5 38.32  731.5 47  C 731.5 55.68  724.68 62.5  716 62.5  C 707.32 62.5  700.5 55.68  700.5 47  C 700.5 38.32  707.32 31.5  716 31.5  Z " stroke-width="1" stroke="#000000" fill="none" stroke-opacity="0.149019607843137" />
  </g>
</svg>