<?xml version="1.0" encoding="utf-8"?>
<svg version="1.1" xmlns:xlink="http://www.w3.org/1999/xlink" width="1072px" height="32px" xmlns="http://www.w3.org/2000/svg">
  <g transform="matrix(1 0 0 1 -311 -223 )">
    <path d="M 312 227  A 3 3 0 0 1 315 224 L 1379 224  A 3 3 0 0 1 1382 227 L 1382 251  A 3 3 0 0 1 1379 254 L 315 254  A 3 3 0 0 1 312 251 L 312 227  Z " fill-rule="nonzero" fill="#ffffff" stroke="none" />
    <path d="M 311.5 227  A 3.5 3.5 0 0 1 315 223.5 L 1379 223.5  A 3.5 3.5 0 0 1 1382.5 227 L 1382.5 251  A 3.5 3.5 0 0 1 1379 254.5 L 315 254.5  A 3.5 3.5 0 0 1 311.5 251 L 311.5 227  Z " stroke-width="1" stroke-dasharray="9,4" stroke="#e8e8e8" fill="none" stroke-dashoffset="0.5" />
  </g>
</svg>