<?xml version="1.0" encoding="utf-8"?>
<svg version="1.1" xmlns:xlink="http://www.w3.org/1999/xlink" width="15px" height="11px" xmlns="http://www.w3.org/2000/svg">
  <g transform="matrix(1 0 0 1 -152 -196 )">
    <path d="M 159.5 198  C 162.58 198  165 199.54  165 201.5  C 165 203.46  162.58 205  159.5 205  C 156.42 205  154 203.46  154 201.5  C 154 199.54  156.42 198  159.5 198  Z " fill-rule="nonzero" fill="#ffffff" stroke="none" />
    <path d="M 159.5 197.5  C 162.86 197.5  165.5 199.26  165.5 201.5  C 165.5 203.74  162.86 205.5  159.5 205.5  C 156.14 205.5  153.5 203.74  153.5 201.5  C 153.5 199.26  156.14 197.5  159.5 197.5  Z " stroke-width="3" stroke="#00ffff" fill="none" />
  </g>
</svg>