<?xml version="1.0" encoding="utf-8"?>
<svg version="1.1" xmlns:xlink="http://www.w3.org/1999/xlink" width="12px" height="12px" viewBox="79 146  12 12" xmlns="http://www.w3.org/2000/svg">
  <path d="M 85 146  C 88.36 146  91 148.64  91 152  C 91 155.36  88.36 158  85 158  C 81.64 158  79 155.36  79 152  C 79 148.64  81.64 146  85 146  Z " fill-rule="nonzero" fill="#ffffff" stroke="none" />
  <path d="M 85 146.5  C 88.08 146.5  90.5 148.92  90.5 152  C 90.5 155.08  88.08 157.5  85 157.5  C 81.92 157.5  79.5 155.08  79.5 152  C 79.5 148.92  81.92 146.5  85 146.5  Z " stroke-width="1" stroke="#797979" fill="none" />
  <path d="M 85 155  C 83.32 155  82 153.68  82 152  C 82 150.32  83.32 149  85 149  C 86.68 149  88 150.32  88 152  C 88 153.68  86.68 155  85 155  " fill-rule="nonzero" fill="#797979" stroke="none" />
</svg>