<?xml version="1.0" encoding="utf-8"?>
<svg version="1.1" xmlns:xlink="http://www.w3.org/1999/xlink" width="171px" height="28px" xmlns="http://www.w3.org/2000/svg">
  <defs>
    <mask fill="white" id="clip149">
      <path d="M 0 23  L 0 5  C 0 2.2  2.13749999999999 0  4.85795454545455 0  L 129.34901266766 0  L 166.142045454545 0  C 168.8625 0  171 2.2  171 5  L 171 23  C 171 25.8  168.8625 28  166.142045454545 28  L 4.85795454545455 28  C 2.13749999999999 28  0 25.8  0 23  Z " fill-rule="evenodd" />
    </mask>
  </defs>
  <g transform="matrix(1 0 0 1 -450 -400 )">
    <path d="M 0 23  L 0 5  C 0 2.2  2.13749999999999 0  4.85795454545455 0  L 129.34901266766 0  L 166.142045454545 0  C 168.8625 0  171 2.2  171 5  L 171 23  C 171 25.8  168.8625 28  166.142045454545 28  L 4.85795454545455 28  C 2.13749999999999 28  0 25.8  0 23  Z " fill-rule="nonzero" fill="#ffffff" stroke="none" transform="matrix(1 0 0 1 450 400 )" />
    <path d="M 0 23  L 0 5  C 0 2.2  2.13749999999999 0  4.85795454545455 0  L 129.34901266766 0  L 166.142045454545 0  C 168.8625 0  171 2.2  171 5  L 171 23  C 171 25.8  168.8625 28  166.142045454545 28  L 4.85795454545455 28  C 2.13749999999999 28  0 25.8  0 23  Z " stroke-width="2" stroke="#b7b7b7" fill="none" transform="matrix(1 0 0 1 450 400 )" mask="url(#clip149)" />
  </g>
</svg>