<?xml version="1.0" encoding="utf-8"?>
<svg version="1.1" xmlns:xlink="http://www.w3.org/1999/xlink" width="313px" height="177px" xmlns="http://www.w3.org/2000/svg">
  <g transform="matrix(1 0 0 1 -679 -1294 )">
    <path d="M 679 1294  L 992 1294  L 992 1471  L 679 1471  L 679 1294  " fill-rule="nonzero" fill="#cccccc" stroke="none" />
    <path d="M 691 1306  L 980 1306  L 980 1459  L 691 1459  L 691 1306  " fill-rule="nonzero" fill="#ffffff" stroke="none" />
    <path d="M 855.035 1347.1  C 847.601 1347.1  841.76 1341.259  841.76 1333.825  C 841.76 1326.391  847.601 1320.55  855.035 1320.55  C 862.469 1320.55  868.31 1326.391  868.31 1333.825  C 868.31 1341.259  862.469 1347.1  855.035 1347.1  " fill-rule="nonzero" fill="#cccccc" stroke="none" />
    <path d="M 696 1455  L 696 1375.8  L 766 1339.8  L 864 1406.14121405751  L 920 1361.4  L 976 1406.14121405751  L 976 1455  L 696 1455  " fill-rule="nonzero" fill="#169bd5" stroke="none" />
  </g>
</svg>