<?xml version="1.0" encoding="utf-8"?>
<svg version="1.1" xmlns:xlink="http://www.w3.org/1999/xlink" width="6px" height="8px" xmlns="http://www.w3.org/2000/svg">
  <g transform="matrix(1 0 0 1 -1100 -139 )">
    <path d="M 5.89690721649484 0.480961923847695  C 5.96563573883162 0.534402137608549  6 0.595858383433533  6 0.665330661322646  C 6 0.734802939211757  5.96563573883162 0.79625918503674  5.89690721649484 0.849699398797595  L 1.84536082474227 4  L 5.89690721649484 7.1503006012024  C 5.96563573883162 7.20374081496326  6 7.26519706078824  6 7.33466933867735  C 6 7.40414161656647  5.96563573883162 7.46559786239145  5.89690721649484 7.51903807615231  L 5.38144329896907 7.91983967935872  C 5.3127147766323 7.97327989311957  5.23367697594502 8  5.14432989690722 8  C 5.05498281786942 8  4.97594501718213 7.97327989311957  4.90721649484536 7.91983967935872  L 0.103092783505155 4.18436873747495  C 0.0343642611683849 4.13092852371409  0 4.06947227788911  0 4  C 0 3.93052772211089  0.0343642611683849 3.8690714762859  0.103092783505155 3.81563126252505  L 4.90721649484536 0.0801603206412826  C 4.97594501718213 0.0267201068804273  5.05498281786942 0  5.14432989690722 0  C 5.23367697594502 0  5.3127147766323 0.0267201068804273  5.38144329896907 0.0801603206412826  L 5.89690721649484 0.480961923847695  Z " fill-rule="nonzero" fill="#c1c1c1" stroke="none" transform="matrix(1 0 0 1 1100 139 )" />
  </g>
</svg>