<?xml version="1.0" encoding="utf-8"?>
<svg version="1.1" xmlns:xlink="http://www.w3.org/1999/xlink" width="419px" height="33px" xmlns="http://www.w3.org/2000/svg">
  <g transform="matrix(1 0 0 1 -699 -1387 )">
    <path d="M 700 1391  A 3 3 0 0 1 703 1388 L 1114 1388  A 3 3 0 0 1 1117 1391 L 1117 1416  A 3 3 0 0 1 1114 1419 L 703 1419  A 3 3 0 0 1 700 1416 L 700 1391  Z " fill-rule="nonzero" fill="#ff3399" stroke="none" fill-opacity="0.0980392156862745" />
    <path d="M 699.5 1391  A 3.5 3.5 0 0 1 703 1387.5 L 1114 1387.5  A 3.5 3.5 0 0 1 1117.5 1391 L 1117.5 1416  A 3.5 3.5 0 0 1 1114 1419.5 L 703 1419.5  A 3.5 3.5 0 0 1 699.5 1416 L 699.5 1391  Z " stroke-width="1" stroke-dasharray="9,4" stroke="#ff3399" fill="none" stroke-dashoffset="0.5" />
  </g>
</svg>