<?xml version="1.0" encoding="utf-8"?>
<svg version="1.1" xmlns:xlink="http://www.w3.org/1999/xlink" width="342px" height="96px" xmlns="http://www.w3.org/2000/svg">
  <g transform="matrix(1 0 0 1 -900 -977 )">
    <path d="M 901 981  A 3 3 0 0 1 904 978 L 1238 978  A 3 3 0 0 1 1241 981 L 1241 1069  A 3 3 0 0 1 1238 1072 L 904 1072  A 3 3 0 0 1 901 1069 L 901 981  Z " fill-rule="nonzero" fill="#ff3399" stroke="none" fill-opacity="0.0980392156862745" />
    <path d="M 900.5 981  A 3.5 3.5 0 0 1 904 977.5 L 1238 977.5  A 3.5 3.5 0 0 1 1241.5 981 L 1241.5 1069  A 3.5 3.5 0 0 1 1238 1072.5 L 904 1072.5  A 3.5 3.5 0 0 1 900.5 1069 L 900.5 981  Z " stroke-width="1" stroke-dasharray="9,4" stroke="#ff3399" fill="none" stroke-dashoffset="0.5" />
  </g>
</svg>