<?xml version="1.0" encoding="utf-8"?>
<svg version="1.1" xmlns:xlink="http://www.w3.org/1999/xlink" width="300px" height="35px" xmlns="http://www.w3.org/2000/svg">
  <g transform="matrix(1 0 0 1 -680 -392 )">
    <path d="M 681 396  A 3 3 0 0 1 684 393 L 976 393  A 3 3 0 0 1 979 396 L 979 423  A 3 3 0 0 1 976 426 L 684 426  A 3 3 0 0 1 681 423 L 681 396  Z " fill-rule="nonzero" fill="#ff3399" stroke="none" fill-opacity="0.0980392156862745" />
    <path d="M 680.5 396  A 3.5 3.5 0 0 1 684 392.5 L 976 392.5  A 3.5 3.5 0 0 1 979.5 396 L 979.5 423  A 3.5 3.5 0 0 1 976 426.5 L 684 426.5  A 3.5 3.5 0 0 1 680.5 423 L 680.5 396  Z " stroke-width="1" stroke-dasharray="9,4" stroke="#ff3399" fill="none" stroke-dashoffset="0.5" />
  </g>
</svg>