<?xml version="1.0" encoding="utf-8"?>
<svg version="1.1" xmlns:xlink="http://www.w3.org/1999/xlink" width="419px" height="158px" xmlns="http://www.w3.org/2000/svg">
  <g transform="matrix(1 0 0 1 -742 -1153 )">
    <path d="M 743 1157  A 3 3 0 0 1 746 1154 L 1157 1154  A 3 3 0 0 1 1160 1157 L 1160 1307  A 3 3 0 0 1 1157 1310 L 746 1310  A 3 3 0 0 1 743 1307 L 743 1157  Z " fill-rule="nonzero" fill="#ff3399" stroke="none" fill-opacity="0.0980392156862745" />
    <path d="M 742.5 1157  A 3.5 3.5 0 0 1 746 1153.5 L 1157 1153.5  A 3.5 3.5 0 0 1 1160.5 1157 L 1160.5 1307  A 3.5 3.5 0 0 1 1157 1310.5 L 746 1310.5  A 3.5 3.5 0 0 1 742.5 1307 L 742.5 1157  Z " stroke-width="1" stroke-dasharray="9,4" stroke="#ff3399" fill="none" stroke-dashoffset="0.5" />
  </g>
</svg>