<?xml version="1.0" encoding="utf-8"?>
<svg version="1.1" xmlns:xlink="http://www.w3.org/1999/xlink" width="340px" height="100px" xmlns="http://www.w3.org/2000/svg">
  <g transform="matrix(1 0 0 1 -518 -651 )">
    <path d="M 519 655  A 3 3 0 0 1 522 652 L 854 652  A 3 3 0 0 1 857 655 L 857 747  A 3 3 0 0 1 854 750 L 522 750  A 3 3 0 0 1 519 747 L 519 655  Z " fill-rule="nonzero" fill="#ff3399" stroke="none" fill-opacity="0.0980392156862745" />
    <path d="M 518.5 655  A 3.5 3.5 0 0 1 522 651.5 L 854 651.5  A 3.5 3.5 0 0 1 857.5 655 L 857.5 747  A 3.5 3.5 0 0 1 854 750.5 L 522 750.5  A 3.5 3.5 0 0 1 518.5 747 L 518.5 655  Z " stroke-width="1" stroke-dasharray="9,4" stroke="#ff3399" fill="none" stroke-dashoffset="0.5" />
  </g>
</svg>