<?xml version="1.0" encoding="utf-8"?>
<svg version="1.1" xmlns:xlink="http://www.w3.org/1999/xlink" width="9px" height="9px" xmlns="http://www.w3.org/2000/svg">
  <g transform="matrix(1 0 0 1 -295 -217 )">
    <path d="M 7.30610795454545 4.1484375  C 7.34446022727273 4.18678977272727  7.36363636363636 4.23579545454545  7.36363636363636 4.29545454545455  L 7.36363636363636 4.70454545454545  C 7.36363636363636 4.76420454545455  7.34446022727273 4.81321022727273  7.30610795454545 4.8515625  C 7.26775568181818 4.88991477272727  7.21875 4.90909090909091  7.15909090909091 4.90909090909091  L 1.84090909090909 4.90909090909091  C 1.78125 4.90909090909091  1.73224431818182 4.88991477272727  1.69389204545455 4.8515625  C 1.65553977272727 4.81321022727273  1.63636363636364 4.76420454545455  1.63636363636364 4.70454545454545  L 1.63636363636364 4.29545454545455  C 1.63636363636364 4.23579545454545  1.65553977272727 4.18678977272727  1.69389204545455 4.1484375  C 1.73224431818182 4.11008522727273  1.78125 4.09090909090909  1.84090909090909 4.09090909090909  L 7.15909090909091 4.09090909090909  C 7.21875 4.09090909090909  7.26775568181818 4.11008522727273  7.30610795454545 4.1484375  Z M 7.88139204545455 7.88139204545455  C 8.08167613636364 7.68110795454545  8.18181818181818 7.44034090909091  8.18181818181818 7.15909090909091  L 8.18181818181818 1.84090909090909  C 8.18181818181818 1.55965909090909  8.08167613636364 1.31889204545454  7.88139204545455 1.11860795454545  C 7.68110795454546 0.918323863636363  7.44034090909091 0.818181818181818  7.15909090909091 0.818181818181818  L 1.84090909090909 0.818181818181818  C 1.55965909090909 0.818181818181818  1.31889204545455 0.918323863636363  1.11860795454545 1.11860795454545  C 0.918323863636364 1.31889204545454  0.818181818181818 1.55965909090909  0.818181818181818 1.84090909090909  L 0.818181818181818 7.15909090909091  C 0.818181818181818 7.44034090909091  0.918323863636364 7.68110795454545  1.11860795454545 7.88139204545455  C 1.31889204545455 8.08167613636364  1.55965909090909 8.18181818181818  1.84090909090909 8.18181818181818  L 7.15909090909091 8.18181818181818  C 7.44034090909091 8.18181818181818  7.68110795454546 8.08167613636364  7.88139204545455 7.88139204545455  Z M 8.45987215909091 0.540127840909091  C 8.81995738636364 0.900213068181818  9 1.33380681818182  9 1.84090909090909  L 9 7.15909090909091  C 9 7.66619318181818  8.81995738636364 8.09978693181818  8.45987215909091 8.45987215909091  C 8.09978693181818 8.81995738636364  7.66619318181818 9  7.15909090909091 9  L 1.84090909090909 9  C 1.33380681818182 9  0.900213068181818 8.81995738636364  0.540127840909091 8.45987215909091  C 0.180042613636364 8.09978693181818  0 7.66619318181818  0 7.15909090909091  L 0 1.84090909090909  C 0 1.33380681818182  0.180042613636364 0.900213068181818  0.540127840909091 0.540127840909091  C 0.900213068181818 0.180042613636363  1.33380681818182 0  1.84090909090909 0  L 7.15909090909091 0  C 7.66619318181818 0  8.09978693181818 0.180042613636363  8.45987215909091 0.540127840909091  Z " fill-rule="nonzero" fill="#797979" stroke="none" transform="matrix(1 0 0 1 295 217 )" />
  </g>
</svg>