<?xml version="1.0" encoding="utf-8"?>
<svg version="1.1" xmlns:xlink="http://www.w3.org/1999/xlink" width="12px" height="12px" viewBox="489 1205  12 12" xmlns="http://www.w3.org/2000/svg">
  <path d="M 495 1205  C 498.36 1205  501 1207.64  501 1211  C 501 1214.36  498.36 1217  495 1217  C 491.64 1217  489 1214.36  489 1211  C 489 1207.64  491.64 1205  495 1205  Z " fill-rule="nonzero" fill="#ffffff" stroke="none" />
  <path d="M 495 1205.5  C 498.08 1205.5  500.5 1207.92  500.5 1211  C 500.5 1214.08  498.08 1216.5  495 1216.5  C 491.92 1216.5  489.5 1214.08  489.5 1211  C 489.5 1207.92  491.92 1205.5  495 1205.5  Z " stroke-width="1" stroke="#797979" fill="none" />
  <path d="M 495 1214  C 493.32 1214  492 1212.68  492 1211  C 492 1209.32  493.32 1208  495 1208  C 496.68 1208  498 1209.32  498 1211  C 498 1212.68  496.68 1214  495 1214  " fill-rule="nonzero" fill="#797979" stroke="none" />
</svg>