<?xml version="1.0" encoding="utf-8"?>
<svg version="1.1" xmlns:xlink="http://www.w3.org/1999/xlink" width="11px" height="11px" xmlns="http://www.w3.org/2000/svg">
  <g transform="matrix(1 0 0 1 -629 -440 )">
    <path d="M 634.5 442  C 636.46 442  638 443.54  638 445.5  C 638 447.46  636.46 449  634.5 449  C 632.54 449  631 447.46  631 445.5  C 631 443.54  632.54 442  634.5 442  Z " fill-rule="nonzero" fill="#ffffff" stroke="none" />
    <path d="M 634.5 441.5  C 636.74 441.5  638.5 443.26  638.5 445.5  C 638.5 447.74  636.74 449.5  634.5 449.5  C 632.26 449.5  630.5 447.74  630.5 445.5  C 630.5 443.26  632.26 441.5  634.5 441.5  Z " stroke-width="3" stroke="#f59a23" fill="none" />
  </g>
</svg>