<?xml version="1.0" encoding="utf-8"?>
<svg version="1.1" xmlns:xlink="http://www.w3.org/1999/xlink" width="19px" height="17px" xmlns="http://www.w3.org/2000/svg">
  <g transform="matrix(1 0 0 1 -261 -123 )">
    <path d="M 18.5805027173913 6.81418485237484  C 18.8601675724638 7.08697047496791  19 7.41613179289688  19 7.80166880616175  L 19 9.19833119383826  C 19 9.58386820710312  18.8601675724638 9.91302952503209  18.5805027173913 10.1858151476252  C 18.3008378623188 10.4586007702182  17.9372735507246 10.5949935815148  17.4898097826087 10.5949935815148  L 8.40285326086956 10.5949935815148  L 12.1847826086957 13.8029525032092  C 12.5117753623188 14.0648267008986  12.6752717391304 14.3921694480103  12.6752717391304 14.7849807445443  C 12.6752717391304 15.1777920410783  12.5117753623188 15.50513478819  12.1847826086957 15.7670089858793  L 11.2167119565217 16.5962772785623  C 10.8983242753623 16.8654257595208  10.5110960144928 17  10.055027173913 17  C 9.6075634057971 17  9.21603260869565 16.8654257595208  8.8804347826087 16.5962772785623  L 0.47758152173913 9.48202824133505  C 0.15919384057971 9.21287976037655  0 8.88553701326487  0 8.5  C 0 8.12173727000428  0.15919384057971 7.79075738125802  0.47758152173913 7.50706033376123  L 8.8804347826087 0.414634146341464  C 9.20742753623188 0.13821138211382  9.59895833333333 0  10.055027173913 0  C 10.502490942029 0  10.8897192028986 0.13821138211382  11.2167119565217 0.414634146341464  L 12.1847826086957 1.22207958921694  C 12.5117753623188 1.49850235344459  12.6752717391304 1.82948224219084  12.6752717391304 2.21501925545571  C 12.6752717391304 2.60055626872058  12.5117753623188 2.93153615746684  12.1847826086957 3.20795892169448  L 8.40285326086956 6.40500641848524  L 17.4898097826087 6.40500641848524  C 17.9372735507246 6.40500641848524  18.3008378623188 6.54139922978177  18.5805027173913 6.81418485237484  Z " fill-rule="nonzero" fill="#5cc870" stroke="none" transform="matrix(1 0 0 1 261 123 )" />
  </g>
</svg>