<?xml version="1.0" encoding="utf-8"?>
<svg version="1.1" xmlns:xlink="http://www.w3.org/1999/xlink" width="16px" height="15px" xmlns="http://www.w3.org/2000/svg">
  <g transform="matrix(1 0 0 1 -1130 -691 )">
    <path d="M 9.05567928730512 12.6066706730769  C 9.11210096510765 12.5495793269231  9.14031180400891 12.4789663461538  9.14031180400891 12.3948317307692  L 9.14031180400891 10.6820913461538  C 9.14031180400891 10.5979567307692  9.11210096510765 10.52734375  9.05567928730512 10.4702524038462  C 8.9992576095026 10.4131610576923  8.93244246473645 10.3846153846154  8.85523385300668 10.3846153846154  L 7.14476614699332 10.3846153846154  C 7.06755753526355 10.3846153846154  7.0007423904974 10.4131610576923  6.94432071269488 10.4702524038462  C 6.88789903489235 10.52734375  6.85968819599109 10.5979567307692  6.85968819599109 10.6820913461538  L 6.85968819599109 12.3948317307692  C 6.85968819599109 12.4789663461538  6.88789903489235 12.5495793269231  6.94432071269488 12.6066706730769  C 7.0007423904974 12.6637620192308  7.06755753526355 12.6923076923077  7.14476614699332 12.6923076923077  L 8.85523385300668 12.6923076923077  C 8.93244246473645 12.6923076923077  8.9992576095026 12.6637620192308  9.05567928730512 12.6066706730769  Z M 9.02895322939866 9.17217548076923  C 9.08537490720119 9.13311298076923  9.11655530809206 9.08353365384615  9.12249443207127 9.0234375  L 9.28285077951002 4.88581730769231  C 9.28285077951002 4.81370192307692  9.25315515961396 4.75661057692308  9.19376391982183 4.71454326923077  C 9.11655530809206 4.6484375  9.0452858203415 4.61538461538462  8.97995545657016 4.61538461538462  L 7.02004454342984 4.61538461538462  C 6.9547141796585 4.61538461538462  6.88344469190794 4.6484375  6.80623608017817 4.71454326923077  C 6.74684484038604 4.75661057692308  6.71714922048998 4.81971153846154  6.71714922048998 4.90384615384615  L 6.86859688195991 9.0234375  C 6.86859688195991 9.08353365384615  6.89829250185598 9.13311298076923  6.95768374164811 9.17217548076923  C 7.01707498144024 9.21123798076923  7.08834446919079 9.23076923076923  7.17149220489978 9.23076923076923  L 8.8195991091314 9.23076923076923  C 8.90274684484039 9.23076923076923  8.97253155159614 9.21123798076923  9.02895322939866 9.17217548076923  Z M 8.57906458797327 0.162259615384616  C 8.75723830734967 0.270432692307692  8.89680772086117 0.417668269230768  8.9977728285078 0.603966346153847  L 15.8396436525612 13.2962740384615  C 16.0475129918337 13.6748798076923  16.0415738678545 14.0534855769231  15.8218262806236 14.4320913461538  C 15.720861172977 14.6063701923077  15.5827765404603 14.7445913461538  15.4075723830735 14.8467548076923  C 15.2323682256867 14.9489182692308  15.0438010393467 15  14.8418708240535 15  L 1.15812917594655 15  C 0.956198960653304 15  0.767631774313289 14.9489182692308  0.592427616926503 14.8467548076923  C 0.417223459539718 14.7445913461538  0.279138827023014 14.6063701923077  0.178173719376392 14.4320913461538  C -0.0415738678544915 14.0534855769231  -0.0475129918337045 13.6748798076923  0.160356347438753 13.2962740384615  L 7.0022271714922 0.603966346153847  C 7.10319227913883 0.417668269230768  7.24276169265034 0.270432692307692  7.42093541202673 0.162259615384616  C 7.59910913140312 0.0540865384615391  7.79213066072754 0  8 0  C 8.20786933927246 0  8.40089086859688 0.0540865384615391  8.57906458797327 0.162259615384616  Z " fill-rule="nonzero" fill="#bf1600" stroke="none" transform="matrix(1 0 0 1 1130 691 )" />
  </g>
</svg>