<?xml version="1.0" encoding="utf-8"?>
<svg version="1.1" xmlns:xlink="http://www.w3.org/1999/xlink" width="11px" height="10px" xmlns="http://www.w3.org/2000/svg">
  <g transform="matrix(1 0 0 1 -1234 -440 )">
    <path d="M 10.8897795591182 4.59627329192547  C 10.9632598530394 4.66528640441684  11 4.74465148378192  11 4.8343685300207  C 11 4.92408557625949  10.9632598530394 5.00345065562457  10.8897795591182 5.07246376811594  L 5.75350701402806 9.89648033126294  C 5.68002672010688 9.96549344375431  5.59552438209753 10  5.5 10  C 5.40447561790247 10  5.31997327989312 9.96549344375431  5.24649298597194 9.89648033126294  L 0.110220440881764 5.07246376811594  C 0.036740146960588 5.00345065562457  0 4.92408557625949  0 4.8343685300207  C 0 4.74465148378192  0.036740146960588 4.66528640441684  0.110220440881764 4.59627329192547  L 0.661322645290581 4.07867494824017  C 0.734802939211757 4.00966183574879  0.819305277221109 3.97515527950311  0.914829659318637 3.97515527950311  C 1.01035404141617 3.97515527950311  1.09485637942552 4.00966183574879  1.16833667334669 4.07867494824017  L 5.5 8.14699792960663  L 9.83166332665331 4.07867494824017  C 9.90514362057448 4.00966183574879  9.98964595858383 3.97515527950311  10.0851703406814 3.97515527950311  C 10.1806947227789 3.97515527950311  10.2651970607882 4.00966183574879  10.3386773547094 4.07867494824017  L 10.8897795591182 4.59627329192547  Z M 10.8897795591182 0.62111801242236  C 10.9632598530394 0.690131124913732  11 0.769496204278812  11 0.859213250517599  C 11 0.948930296756382  10.9632598530394 1.02829537612146  10.8897795591182 1.09730848861284  L 5.75350701402806 5.92132505175983  C 5.68002672010688 5.99033816425121  5.59552438209753 6.02484472049689  5.5 6.02484472049689  C 5.40447561790247 6.02484472049689  5.31997327989312 5.99033816425121  5.24649298597194 5.92132505175983  L 0.110220440881764 1.09730848861284  C 0.036740146960588 1.02829537612146  0 0.948930296756382  0 0.859213250517599  C 0 0.769496204278812  0.036740146960588 0.690131124913732  0.110220440881764 0.62111801242236  L 0.661322645290581 0.10351966873706  C 0.734802939211757 0.0345065562456859  0.819305277221109 0  0.914829659318637 0  C 1.01035404141617 0  1.09485637942552 0.0345065562456859  1.16833667334669 0.10351966873706  L 5.5 4.17184265010352  L 9.83166332665331 0.10351966873706  C 9.90514362057448 0.0345065562456859  9.98964595858383 0  10.0851703406814 0  C 10.1806947227789 0  10.2651970607882 0.0345065562456859  10.3386773547094 0.10351966873706  L 10.8897795591182 0.62111801242236  Z " fill-rule="nonzero" fill="#aeaeae" stroke="none" transform="matrix(1 0 0 1 1234 440 )" />
  </g>
</svg>