<?xml version="1.0" encoding="utf-8"?>
<svg version="1.1" xmlns:xlink="http://www.w3.org/1999/xlink" width="165px" height="116px" xmlns="http://www.w3.org/2000/svg">
  <g transform="matrix(1 0 0 1 -298 -747 )">
    <path d="M 298 747  L 463 747  L 463 863  L 298 863  L 298 747  " fill-rule="nonzero" fill="#cccccc" stroke="none" />
    <path d="M 306 755  L 455 755  L 455 855  L 306 855  L 306 755  " fill-rule="nonzero" fill="#ffffff" stroke="none" />
    <path d="M 392.5 781.8  C 387.628 781.8  383.8 777.972  383.8 773.1  C 383.8 768.228  387.628 764.4  392.5 764.4  C 397.372 764.4  401.2 768.228  401.2 773.1  C 401.2 777.972  397.372 781.8  392.5 781.8  " fill-rule="nonzero" fill="#cccccc" stroke="none" />
    <path d="M 309 852  L 309 800.3  L 344.75 776.8  L 394.8 812.349090909091  L 423.4 790.9  L 452 812.349090909091  L 452 852  L 309 852  " fill-rule="nonzero" fill="#169bd5" stroke="none" />
  </g>
</svg>