<?xml version="1.0" encoding="utf-8"?>
<svg version="1.1" xmlns:xlink="http://www.w3.org/1999/xlink" width="106px" height="100px" xmlns="http://www.w3.org/2000/svg">
  <g transform="matrix(1 0 0 1 -1777 -523 )">
    <path d="M 1777 523  L 1883 523  L 1883 623  L 1777 623  L 1777 523  " fill-rule="nonzero" fill="#cccccc" stroke="none" />
    <path d="M 1784 530  L 1876 530  L 1876 616  L 1784 616  L 1784 530  " fill-rule="nonzero" fill="#ffffff" stroke="none" />
    <path d="M 1839.62 553  C 1835.42 553  1832.12 549.7  1832.12 545.5  C 1832.12 541.3  1835.42 538  1839.62 538  C 1843.82 538  1847.12 541.3  1847.12 545.5  C 1847.12 549.7  1843.82 553  1839.62 553  " fill-rule="nonzero" fill="#cccccc" stroke="none" />
    <path d="M 1787 614  L 1787 569.45  L 1808.75 549.2  L 1839.2 568.150943396226  L 1856.6 561.35  L 1874 568.150943396226  L 1874 614  L 1787 614  " fill-rule="nonzero" fill="#169bd5" stroke="none" />
  </g>
</svg>