<?xml version="1.0" encoding="utf-8"?>
<svg version="1.1" xmlns:xlink="http://www.w3.org/1999/xlink" width="12px" height="12px" viewBox="1694 320.5  12 12" xmlns="http://www.w3.org/2000/svg">
  <path d="M 1700 320.5  C 1703.36 320.5  1706 323.14  1706 326.5  C 1706 329.86  1703.36 332.5  1700 332.5  C 1696.64 332.5  1694 329.86  1694 326.5  C 1694 323.14  1696.64 320.5  1700 320.5  Z " fill-rule="nonzero" fill="#ffffff" stroke="none" />
  <path d="M 1700 321  C 1703.08 321  1705.5 323.42  1705.5 326.5  C 1705.5 329.58  1703.08 332  1700 332  C 1696.92 332  1694.5 329.58  1694.5 326.5  C 1694.5 323.42  1696.92 321  1700 321  Z " stroke-width="1" stroke="#797979" fill="none" />
  <path d="M 1700 329.5  C 1698.32 329.5  1697 328.18  1697 326.5  C 1697 324.82  1698.32 323.5  1700 323.5  C 1701.68 323.5  1703 324.82  1703 326.5  C 1703 328.18  1701.68 329.5  1700 329.5  " fill-rule="nonzero" fill="#797979" stroke="none" />
</svg>