<?xml version="1.0" encoding="utf-8"?>
<svg version="1.1" xmlns:xlink="http://www.w3.org/1999/xlink" width="32px" height="32px" xmlns="http://www.w3.org/2000/svg">
  <g transform="matrix(1 0 0 1 -972 -65 )">
    <path d="M 988 65.5  C 996.68 65.5  1003.5 72.32  1003.5 81  C 1003.5 89.68  996.68 96.5  988 96.5  C 979.32 96.5  972.5 89.68  972.5 81  C 972.5 72.32  979.32 65.5  988 65.5  Z " fill-rule="nonzero" fill="#acacac" stroke="none" />
    <path d="M 988 65.5  C 996.68 65.5  1003.5 72.32  1003.5 81  C 1003.5 89.68  996.68 96.5  988 96.5  C 979.32 96.5  972.5 89.68  972.5 81  C 972.5 72.32  979.32 65.5  988 65.5  Z " stroke-width="1" stroke="#000000" fill="none" stroke-opacity="0.149019607843137" />
  </g>
</svg>