<?xml version="1.0" encoding="utf-8"?>
<svg version="1.1" xmlns:xlink="http://www.w3.org/1999/xlink" width="32px" height="32px" xmlns="http://www.w3.org/2000/svg">
  <g transform="matrix(1 0 0 1 -683 -65 )">
    <path d="M 699 65.5  C 707.68 65.5  714.5 72.32  714.5 81  C 714.5 89.68  707.68 96.5  699 96.5  C 690.32 96.5  683.5 89.68  683.5 81  C 683.5 72.32  690.32 65.5  699 65.5  Z " fill-rule="nonzero" fill="#a6a6a6" stroke="none" />
    <path d="M 699 65.5  C 707.68 65.5  714.5 72.32  714.5 81  C 714.5 89.68  707.68 96.5  699 96.5  C 690.32 96.5  683.5 89.68  683.5 81  C 683.5 72.32  690.32 65.5  699 65.5  Z " stroke-width="1" stroke="#000000" fill="none" stroke-opacity="0.149019607843137" />
  </g>
</svg>