<?xml version="1.0" encoding="utf-8"?>
<svg version="1.1" xmlns:xlink="http://www.w3.org/1999/xlink" width="32px" height="32px" xmlns="http://www.w3.org/2000/svg">
  <g transform="matrix(1 0 0 1 -411 -65 )">
    <path d="M 427 65.5  C 435.68 65.5  442.5 72.32  442.5 81  C 442.5 89.68  435.68 96.5  427 96.5  C 418.32 96.5  411.5 89.68  411.5 81  C 411.5 72.32  418.32 65.5  427 65.5  Z " fill-rule="nonzero" fill="#b0b0b0" stroke="none" />
    <path d="M 427 65.5  C 435.68 65.5  442.5 72.32  442.5 81  C 442.5 89.68  435.68 96.5  427 96.5  C 418.32 96.5  411.5 89.68  411.5 81  C 411.5 72.32  418.32 65.5  427 65.5  Z " stroke-width="1" stroke="#000000" fill="none" stroke-opacity="0.149019607843137" />
  </g>
</svg>