<?xml version="1.0" encoding="utf-8"?>
<svg version="1.1" xmlns:xlink="http://www.w3.org/1999/xlink" width="10px" height="10px" xmlns="http://www.w3.org/2000/svg">
  <g transform="matrix(1 0 0 1 -464 -256 )">
    <path d="M 469 258  C 470.68 258  472 259.32  472 261  C 472 262.68  470.68 264  469 264  C 467.32 264  466 262.68  466 261  C 466 259.32  467.32 258  469 258  Z " fill-rule="nonzero" fill="#ffffff" stroke="none" />
    <path d="M 469 257.5  C 470.96 257.5  472.5 259.04  472.5 261  C 472.5 262.96  470.96 264.5  469 264.5  C 467.04 264.5  465.5 262.96  465.5 261  C 465.5 259.04  467.04 257.5  469 257.5  Z " stroke-width="3" stroke="#00ffff" fill="none" />
  </g>
</svg>