<?xml version="1.0" encoding="utf-8"?>
<svg version="1.1" xmlns:xlink="http://www.w3.org/1999/xlink" width="105px" height="100px" xmlns="http://www.w3.org/2000/svg">
  <g transform="matrix(1 0 0 1 -279 -431 )">
    <path d="M 279 431  L 384 431  L 384 531  L 279 531  L 279 431  " fill-rule="nonzero" fill="#cccccc" stroke="none" />
    <path d="M 286 438  L 377 438  L 377 524  L 286 524  L 286 438  " fill-rule="nonzero" fill="#ffffff" stroke="none" />
    <path d="M 341.1 461  C 336.9 461  333.6 457.7  333.6 453.5  C 333.6 449.3  336.9 446  341.1 446  C 345.3 446  348.6 449.3  348.6 453.5  C 348.6 457.7  345.3 461  341.1 461  " fill-rule="nonzero" fill="#cccccc" stroke="none" />
    <path d="M 289 522  L 289 477.45  L 310.5 457.2  L 340.6 475.714285714286  L 357.8 469.35  L 375 475.714285714286  L 375 522  L 289 522  " fill-rule="nonzero" fill="#169bd5" stroke="none" />
  </g>
</svg>