<?xml version="1.0" encoding="utf-8"?>
<svg version="1.1" xmlns:xlink="http://www.w3.org/1999/xlink" width="15px" height="22px" xmlns="http://www.w3.org/2000/svg">
  <g transform="matrix(1 0 0 1 -261 -132 )">
    <path d="M 14.6688179347826 8.8183568677792  C 14.8896059782609 9.17137355584082  15 9.59734702610184  15 10.0962772785623  L 15 11.9037227214377  C 15 12.4026529738982  14.8896059782609 12.8286264441592  14.6688179347826 13.1816431322208  C 14.4480298913043 13.5346598202824  14.1610054347826 13.7111681643132  13.8077445652174 13.7111681643132  L 6.63383152173913 13.7111681643132  L 9.6195652173913 17.8626444159178  C 9.87771739130435 18.201540436457  10.0067934782609 18.6251604621309  10.0067934782609 19.1335044929397  C 10.0067934782609 19.6418485237484  9.87771739130435 20.0654685494223  9.6195652173913 20.4043645699615  L 8.85529891304348 21.4775353016688  C 8.6039402173913 21.8258451005563  8.29823369565217 22  7.93817934782609 22  C 7.58491847826087 22  7.2758152173913 21.8258451005563  7.01086956521739 21.4775353016688  L 0.377038043478261 12.2708600770218  C 0.125679347826087 11.9225502781344  0 11.4989302524604  0 11  C 0 10.5104835258879  0.125679347826087 10.0821566110398  0.377038043478261 9.71501925545571  L 7.01086956521739 0.536585365853659  C 7.26902173913044 0.178861788617885  7.578125 0  7.93817934782609 0  C 8.2914402173913 0  8.59714673913044 0.178861788617885  8.85529891304348 0.536585365853659  L 9.6195652173913 1.58151476251605  C 9.87771739130435 1.93923833975182  10.0067934782609 2.36756525459991  10.0067934782609 2.86649550706033  C 10.0067934782609 3.36542575952075  9.87771739130435 3.79375267436885  9.6195652173913 4.15147625160462  L 6.63383152173913 8.28883183568678  L 13.8077445652174 8.28883183568678  C 14.1610054347826 8.28883183568678  14.4480298913043 8.46534017971759  14.6688179347826 8.8183568677792  Z " fill-rule="nonzero" fill="#28c76f" stroke="none" transform="matrix(1 0 0 1 261 132 )" />
  </g>
</svg>