<?xml version="1.0" encoding="utf-8"?>
<svg version="1.1" xmlns:xlink="http://www.w3.org/1999/xlink" width="12px" height="12px" viewBox="48 692.5  12 12" xmlns="http://www.w3.org/2000/svg">
  <path d="M 54 692.5  C 57.36 692.5  60 695.14  60 698.5  C 60 701.86  57.36 704.5  54 704.5  C 50.64 704.5  48 701.86  48 698.5  C 48 695.14  50.64 692.5  54 692.5  Z " fill-rule="nonzero" fill="#ffffff" stroke="none" />
  <path d="M 54 693  C 57.08 693  59.5 695.42  59.5 698.5  C 59.5 701.58  57.08 704  54 704  C 50.92 704  48.5 701.58  48.5 698.5  C 48.5 695.42  50.92 693  54 693  Z " stroke-width="1" stroke="#797979" fill="none" />
  <path d="M 54 701.5  C 52.32 701.5  51 700.18  51 698.5  C 51 696.82  52.32 695.5  54 695.5  C 55.68 695.5  57 696.82  57 698.5  C 57 700.18  55.68 701.5  54 701.5  " fill-rule="nonzero" fill="#797979" stroke="none" />
</svg>