<?xml version="1.0" encoding="utf-8"?>
<svg version="1.1" xmlns:xlink="http://www.w3.org/1999/xlink" width="12px" height="12px" viewBox="48 976.5  12 12" xmlns="http://www.w3.org/2000/svg">
  <path d="M 54 976.5  C 57.36 976.5  60 979.14  60 982.5  C 60 985.86  57.36 988.5  54 988.5  C 50.64 988.5  48 985.86  48 982.5  C 48 979.14  50.64 976.5  54 976.5  Z " fill-rule="nonzero" fill="#ffffff" stroke="none" />
  <path d="M 54 977  C 57.08 977  59.5 979.42  59.5 982.5  C 59.5 985.58  57.08 988  54 988  C 50.92 988  48.5 985.58  48.5 982.5  C 48.5 979.42  50.92 977  54 977  Z " stroke-width="1" stroke="#797979" fill="none" />
  <path d="M 54 985.5  C 52.32 985.5  51 984.18  51 982.5  C 51 980.82  52.32 979.5  54 979.5  C 55.68 979.5  57 980.82  57 982.5  C 57 984.18  55.68 985.5  54 985.5  " fill-rule="nonzero" fill="#797979" stroke="none" />
</svg>