<?xml version="1.0" encoding="utf-8"?>
<svg version="1.1" xmlns:xlink="http://www.w3.org/1999/xlink" width="12px" height="12px" viewBox="48 1011.5  12 12" xmlns="http://www.w3.org/2000/svg">
  <path d="M 54 1011.5  C 57.36 1011.5  60 1014.14  60 1017.5  C 60 1020.86  57.36 1023.5  54 1023.5  C 50.64 1023.5  48 1020.86  48 1017.5  C 48 1014.14  50.64 1011.5  54 1011.5  Z " fill-rule="nonzero" fill="#ffffff" stroke="none" />
  <path d="M 54 1012  C 57.08 1012  59.5 1014.42  59.5 1017.5  C 59.5 1020.58  57.08 1023  54 1023  C 50.92 1023  48.5 1020.58  48.5 1017.5  C 48.5 1014.42  50.92 1012  54 1012  Z " stroke-width="1" stroke="#797979" fill="none" />
  <path d="M 54 1020.5  C 52.32 1020.5  51 1019.18  51 1017.5  C 51 1015.82  52.32 1014.5  54 1014.5  C 55.68 1014.5  57 1015.82  57 1017.5  C 57 1019.18  55.68 1020.5  54 1020.5  " fill-rule="nonzero" fill="#797979" stroke="none" />
</svg>