<?xml version="1.0" encoding="utf-8"?>
<svg version="1.1" xmlns:xlink="http://www.w3.org/1999/xlink" width="363px" height="206px" xmlns="http://www.w3.org/2000/svg">
  <g transform="matrix(1 0 0 1 -55 -109 )">
    <path d="M 55 109  L 418 109  L 418 315  L 55 315  L 55 109  " fill-rule="nonzero" fill="#cccccc" stroke="none" />
    <path d="M 69 123  L 404 123  L 404 301  L 69 301  L 69 123  " fill-rule="nonzero" fill="#ffffff" stroke="none" />
    <path d="M 259.21 170.8  C 250.558 170.8  243.76 164.002  243.76 155.35  C 243.76 146.698  250.558 139.9  259.21 139.9  C 267.862 139.9  274.66 146.698  274.66 155.35  C 274.66 164.002  267.862 170.8  259.21 170.8  " fill-rule="nonzero" fill="#cccccc" stroke="none" />
    <path d="M 74 296  L 74 203.6  L 155.25 161.6  L 269 238.796694214876  L 334 186.8  L 399 238.796694214876  L 399 296  L 74 296  " fill-rule="nonzero" fill="#169bd5" stroke="none" />
  </g>
</svg>