<?xml version="1.0" encoding="utf-8"?>
<svg version="1.1" xmlns:xlink="http://www.w3.org/1999/xlink" width="18px" height="14px" xmlns="http://www.w3.org/2000/svg">
  <g transform="matrix(1 0 0 1 -62 -22 )">
    <path d="M 3.8056640625 9.38875  C 4.0810546875 9.11458333333333  4.21875 8.785  4.21875 8.4  C 4.21875 8.015  4.0810546875 7.68541666666667  3.8056640625 7.41125  C 3.5302734375 7.13708333333333  3.19921875 7  2.8125 7  C 2.42578125 7  2.0947265625 7.13708333333333  1.8193359375 7.41125  C 1.5439453125 7.68541666666667  1.40625 8.015  1.40625 8.4  C 1.40625 8.785  1.5439453125 9.11458333333333  1.8193359375 9.38875  C 2.0947265625 9.66291666666667  2.42578125 9.8  2.8125 9.8  C 3.19921875 9.8  3.5302734375 9.66291666666667  3.8056640625 9.38875  Z M 5.3173828125 2.47625  L 4.53515625 5.6  L 13.46484375 5.6  L 12.6826171875 2.47625  C 12.6708984375 2.42958333333333  12.6298828125 2.37854166666667  12.5595703125 2.323125  C 12.4892578125 2.26770833333333  12.427734375 2.24  12.375 2.24  L 5.625 2.24  C 5.572265625 2.24  5.5107421875 2.26770833333333  5.4404296875 2.323125  C 5.3701171875 2.37854166666667  5.3291015625 2.42958333333333  5.3173828125 2.47625  Z M 16.1806640625 9.38875  C 16.4560546875 9.11458333333333  16.59375 8.785  16.59375 8.4  C 16.59375 8.015  16.4560546875 7.68541666666667  16.1806640625 7.41125  C 15.9052734375 7.13708333333333  15.57421875 7  15.1875 7  C 14.80078125 7  14.4697265625 7.13708333333333  14.1943359375 7.41125  C 13.9189453125 7.68541666666667  13.78125 8.015  13.78125 8.4  C 13.78125 8.785  13.9189453125 9.11458333333333  14.1943359375 9.38875  C 14.4697265625 9.66291666666667  14.80078125 9.8  15.1875 9.8  C 15.57421875 9.8  15.9052734375 9.66291666666667  16.1806640625 9.38875  Z M 17.42431640625 6.173125  C 17.80810546875 6.55520833333333  18 7.0175  18 7.56  L 18 10.92  C 18 11.0016666666667  17.9736328125 11.06875  17.9208984375 11.12125  C 17.8681640625 11.17375  17.80078125 11.2  17.71875 11.2  L 16.875 11.2  L 16.875 12.32  C 16.875 12.7866666666667  16.7109375 13.1833333333333  16.3828125 13.51  C 16.0546875 13.8366666666667  15.65625 14  15.1875 14  C 14.71875 14  14.3203125 13.8366666666667  13.9921875 13.51  C 13.6640625 13.1833333333333  13.5 12.7866666666667  13.5 12.32  L 13.5 11.2  L 4.5 11.2  L 4.5 12.32  C 4.5 12.7866666666667  4.3359375 13.1833333333333  4.0078125 13.51  C 3.6796875 13.8366666666667  3.28125 14  2.8125 14  C 2.34375 14  1.9453125 13.8366666666667  1.6171875 13.51  C 1.2890625 13.1833333333333  1.125 12.7866666666667  1.125 12.32  L 1.125 11.2  L 0.28125 11.2  C 0.19921875 11.2  0.1318359375 11.17375  0.0791015625 11.12125  C 0.0263671875 11.06875  0 11.0016666666667  0 10.92  L 0 7.56  C 0 7.0175  0.19189453125 6.55520833333333  0.57568359375 6.173125  C 0.95947265625 5.79104166666667  1.423828125 5.6  1.96875 5.6  L 2.21484375 5.6  L 3.1376953125 1.93375  C 3.2724609375 1.38541666666667  3.5771484375 0.926041666666665  4.0517578125 0.555625  C 4.5263671875 0.185208333333333  5.05078125 0  5.625 0  L 12.375 0  C 12.94921875 0  13.4736328125 0.185208333333333  13.9482421875 0.555625  C 14.4228515625 0.926041666666665  14.7275390625 1.38541666666667  14.8623046875 1.93375  L 15.78515625 5.6  L 16.03125 5.6  C 16.576171875 5.6  17.04052734375 5.79104166666667  17.42431640625 6.173125  Z " fill-rule="nonzero" fill="#000000" stroke="none" transform="matrix(1 0 0 1 62 22 )" />
  </g>
</svg>