<?xml version="1.0" encoding="utf-8"?>
<svg version="1.1" xmlns:xlink="http://www.w3.org/1999/xlink" width="12px" height="12px" viewBox="170 150  12 12" xmlns="http://www.w3.org/2000/svg">
  <path d="M 176 150  C 179.36 150  182 152.64  182 156  C 182 159.36  179.36 162  176 162  C 172.64 162  170 159.36  170 156  C 170 152.64  172.64 150  176 150  Z " fill-rule="nonzero" fill="#ffffff" stroke="none" />
  <path d="M 176 150.5  C 179.08 150.5  181.5 152.92  181.5 156  C 181.5 159.08  179.08 161.5  176 161.5  C 172.92 161.5  170.5 159.08  170.5 156  C 170.5 152.92  172.92 150.5  176 150.5  Z " stroke-width="1" stroke="#797979" fill="none" />
  <path d="M 176 159  C 174.32 159  173 157.68  173 156  C 173 154.32  174.32 153  176 153  C 177.68 153  179 154.32  179 156  C 179 157.68  177.68 159  176 159  " fill-rule="nonzero" fill="#797979" stroke="none" />
</svg>