<?xml version="1.0" encoding="utf-8"?>
<svg version="1.1" xmlns:xlink="http://www.w3.org/1999/xlink" width="12px" height="12px" viewBox="270 150  12 12" xmlns="http://www.w3.org/2000/svg">
  <path d="M 276 150  C 279.36 150  282 152.64  282 156  C 282 159.36  279.36 162  276 162  C 272.64 162  270 159.36  270 156  C 270 152.64  272.64 150  276 150  Z " fill-rule="nonzero" fill="#ffffff" stroke="none" />
  <path d="M 276 150.5  C 279.08 150.5  281.5 152.92  281.5 156  C 281.5 159.08  279.08 161.5  276 161.5  C 272.92 161.5  270.5 159.08  270.5 156  C 270.5 152.92  272.92 150.5  276 150.5  Z " stroke-width="1" stroke="#797979" fill="none" />
  <path d="M 276 159  C 274.32 159  273 157.68  273 156  C 273 154.32  274.32 153  276 153  C 277.68 153  279 154.32  279 156  C 279 157.68  277.68 159  276 159  " fill-rule="nonzero" fill="#797979" stroke="none" />
</svg>