<?xml version="1.0" encoding="utf-8"?>
<svg version="1.1" xmlns:xlink="http://www.w3.org/1999/xlink" width="177px" height="29px" xmlns="http://www.w3.org/2000/svg">
  <defs>
    <mask fill="white" id="clip152">
      <path d="M 0 23.8214285714286  L 0 5.17857142857143  C 0 2.27857142857143  2.21249999999999 0  5.02840909090909 0  L 133.887574515648 0  L 171.971590909091 0  C 174.7875 0  177 2.27857142857143  177 5.17857142857143  L 177 23.8214285714286  C 177 26.7214285714286  174.7875 29  171.971590909091 29  L 5.02840909090909 29  C 2.21249999999999 29  0 26.7214285714286  0 23.8214285714286  Z " fill-rule="evenodd" />
    </mask>
  </defs>
  <g transform="matrix(1 0 0 1 -456 -395 )">
    <path d="M 0 23.8214285714286  L 0 5.17857142857143  C 0 2.27857142857143  2.21249999999999 0  5.02840909090909 0  L 133.887574515648 0  L 171.971590909091 0  C 174.7875 0  177 2.27857142857143  177 5.17857142857143  L 177 23.8214285714286  C 177 26.7214285714286  174.7875 29  171.971590909091 29  L 5.02840909090909 29  C 2.21249999999999 29  0 26.7214285714286  0 23.8214285714286  Z " fill-rule="nonzero" fill="#ffffff" stroke="none" transform="matrix(1 0 0 1 456 395 )" />
    <path d="M 0 23.8214285714286  L 0 5.17857142857143  C 0 2.27857142857143  2.21249999999999 0  5.02840909090909 0  L 133.887574515648 0  L 171.971590909091 0  C 174.7875 0  177 2.27857142857143  177 5.17857142857143  L 177 23.8214285714286  C 177 26.7214285714286  174.7875 29  171.971590909091 29  L 5.02840909090909 29  C 2.21249999999999 29  0 26.7214285714286  0 23.8214285714286  Z " stroke-width="2" stroke="#b7b7b7" fill="none" transform="matrix(1 0 0 1 456 395 )" mask="url(#clip152)" />
  </g>
</svg>